<svg xmlns="http://www.w3.org/2000/svg" width="100%" viewBox="0 0 880 350">
<style>
  .bg { fill: #ffffff; }
  .card { fill: #f6f8fa; stroke: #d0d7de; stroke-width: 1px; rx: 6px; }
  .text { font-family: "Google Sans", -apple-system, BlinkMacSystemFont, "Segoe UI", Helvetica, Arial, sans-serif; fill: #24292f; }
  .title { font-size: 20px; font-weight: 600; fill: #000000; }
  .subtitle { font-size: 13px; fill: #57606a; }
  .wf-name { font-size: 14px; font-weight: 500; }
  .wf-meta { font-size: 13px; font-weight: 600; text-anchor: end; }
  .timestamp { font-size: 11px; fill: #57606a; }
</style>
<rect class="bg" width="880" height="350" rx="10" ry="10"/>
<text x="25" y="35" class="text title">Workflow Execution Report</text>
<text x="25" y="55" class="text subtitle">Commit: 0a17855 • Triggered: 2026-06-05 13:09:06</text>
<rect x="20" y="70" width="840" height="55" class="card" />
<circle cx="35" cy="95" r="6" fill="#238636" />
<text x="50" y="95" class="text wf-name">Remove Solutions on Main</text>
<text x="50" y="112" class="text timestamp">2026-06-05 13:08:51 • trigger: push</text>
<clipPath id="pill-clip-0"><rect x="685" y="105" width="160" height="8" rx="4" ry="4" /></clipPath>
<g clip-path="url(#pill-clip-0)">
<rect x="685" y="105" width="160" height="8" fill="#ebecf0" />
<rect x="685.0" y="105" width="32.0" height="8" fill="#238636" />
<line x1="717.0" y1="105" x2="717.0" y2="113" stroke="#ffffff" stroke-width="1.5" />
<rect x="717.0" y="105" width="32.0" height="8" fill="#238636" />
<line x1="749.0" y1="105" x2="749.0" y2="113" stroke="#ffffff" stroke-width="1.5" />
<rect x="749.0" y="105" width="32.0" height="8" fill="#238636" />
<line x1="781.0" y1="105" x2="781.0" y2="113" stroke="#ffffff" stroke-width="1.5" />
<rect x="781.0" y="105" width="32.0" height="8" fill="#238636" />
<line x1="813.0" y1="105" x2="813.0" y2="113" stroke="#ffffff" stroke-width="1.5" />
<rect x="813.0" y="105" width="32.0" height="8" fill="#238636" />
</g>
<text x="845" y="95" class="text wf-meta" fill="#238636">SUCCESS (9s)</text>
<rect x="20" y="135" width="840" height="55" class="card" />
<circle cx="35" cy="160" r="6" fill="#238636" />
<text x="50" y="160" class="text wf-name">CI Verify Labs</text>
<text x="50" y="177" class="text timestamp">2026-06-05 12:25:41 • prev trigger: pull_request</text>
<rect x="685" y="170" width="160" height="8" rx="4" ry="4" fill="#238636" />
<text x="845" y="160" class="text wf-meta" fill="#238636">SUCCESS (Last: 122s)</text>
<rect x="20" y="200" width="840" height="55" class="card" />
<circle cx="35" cy="225" r="6" fill="#6e7681" />
<text x="50" y="225" class="text wf-name">Generate and Embed Banner</text>
<text x="50" y="242" class="text timestamp">No history</text>
<rect x="685" y="235" width="160" height="8" rx="4" ry="4" fill="#ebecf0" />
<text x="845" y="225" class="text wf-meta" fill="#6e7681">NOT RUN (N/A)</text>
<rect x="20" y="265" width="840" height="55" class="card" />
<circle cx="35" cy="290" r="6" fill="#238636" />
<text x="50" y="290" class="text wf-name">Manual Pre-Release</text>
<text x="50" y="307" class="text timestamp">2026-06-05 12:33:21 • prev trigger: workflow_dispatch</text>
<rect x="685" y="300" width="160" height="8" rx="4" ry="4" fill="#238636" />
<text x="845" y="290" class="text wf-meta" fill="#238636">SUCCESS (Last: 11s)</text>
</svg>