<svg xmlns="http://www.w3.org/2000/svg" viewBox="0 0 1200 630" fill="none">
  <defs>
    <linearGradient id="g1" x1="0" y1="0" x2="1200" y2="630" gradientUnits="userSpaceOnUse">
      <stop stop-color="#050608"/>
      <stop offset="1" stop-color="#11151d"/>
    </linearGradient>
    <radialGradient id="g2" cx="0" cy="0" r="1" gradientUnits="userSpaceOnUse" gradientTransform="translate(930 160) rotate(137) scale(420 290)">
      <stop stop-color="#00d1c7" stop-opacity=".28"/>
      <stop offset="1" stop-color="#00d1c7" stop-opacity="0"/>
    </radialGradient>
    <radialGradient id="g3" cx="0" cy="0" r="1" gradientUnits="userSpaceOnUse" gradientTransform="translate(260 470) rotate(135) scale(520 360)">
      <stop stop-color="#d4af37" stop-opacity=".24"/>
      <stop offset="1" stop-color="#d4af37" stop-opacity="0"/>
    </radialGradient>
  </defs>
  <rect width="1200" height="630" rx="48" fill="url(#g1)"/>
  <rect width="1200" height="630" rx="48" fill="url(#g2)"/>
  <rect width="1200" height="630" rx="48" fill="url(#g3)"/>
  <g opacity=".25" stroke="#f4f7fb">
    <path d="M80 120H1120" />
    <path d="M80 228H1120" />
    <path d="M80 336H1120" />
    <path d="M80 444H1120" />
    <path d="M80 552H1120" />
  </g>
  <g transform="translate(92 82)">
    <circle cx="0" cy="0" r="12" stroke="#00d1c7" stroke-width="6"/>
    <circle cx="48" cy="84" r="12" stroke="#d4af37" stroke-width="6"/>
    <circle cx="96" cy="84" r="12" stroke="#f4f7fb" stroke-width="6"/>
    <path d="M-8 10L40 70" stroke="#00d1c7" stroke-width="6" stroke-linecap="round"/>
    <path d="M8 10L56 70" stroke="#00d1c7" stroke-width="6" stroke-linecap="round"/>
    <path d="M44 84H80" stroke="#d4af37" stroke-width="6" stroke-linecap="round"/>
  </g>
  <text x="92" y="285" fill="#f4f7fb" font-size="86" font-family="Inter, Arial, sans-serif" font-weight="700" letter-spacing="-2">BrokenOps</text>
  <text x="92" y="360" fill="#00d1c7" font-size="24" font-family="Inter, Arial, sans-serif" font-weight="700" letter-spacing="5">COMMUNITY LINUX LAB PLATFORM</text>
  <text x="92" y="415" fill="#cdd5df" font-size="30" font-family="Inter, Arial, sans-serif">Local labs, merged releases, and hands-on troubleshooting.</text>
  <text x="92" y="468" fill="#cdd5df" font-size="30" font-family="Inter, Arial, sans-serif">Built and maintained by HimanM.</text>
</svg>
